<svg version="1.1" id="Layer_1" xmlns="http://www.w3.org/2000/svg" xmlns:xlink="http://www.w3.org/1999/xlink" x="0px" y="0px"
	 width="100%" viewBox="0 0 2229 1960" enable-background="new 0 0 2229 1960" xml:space="preserve">
<path fill="#FFFFFF" opacity="1.000000" stroke="none" 
	d="
M1244.000000,1962.000000 
	C829.382568,1962.000000 415.765198,1962.000000 2.073895,1962.000000 
	C2.073895,1308.793701 2.073895,655.587463 2.073895,2.190604 
	C745.117737,2.190604 1488.235474,2.190604 2231.676758,2.190604 
	C2231.676758,655.333191 2231.676758,1308.666626 2231.676758,1962.000000 
	C1902.920288,1962.000000 1573.960083,1962.000000 1244.000000,1962.000000 
M273.643494,1057.610596 
	C275.819946,1090.077393 281.104950,1122.069580 287.574066,1153.938843 
	C303.540710,1232.596924 330.414551,1307.281982 367.861908,1378.234131 
	C411.541077,1460.993652 467.130402,1534.638062 535.255554,1598.890869 
	C560.937500,1623.112793 587.866333,1645.749512 616.279602,1666.632324 
	C684.526611,1716.791626 758.681396,1755.826538 838.645447,1783.709717 
	C879.125916,1797.825073 920.473450,1808.686401 962.660767,1816.593750 
	C996.587952,1822.952881 1030.733398,1827.889893 1065.112183,1829.360718 
	C1111.932129,1831.363647 1158.812378,1831.681396 1205.605469,1826.510620 
	C1241.576782,1822.535522 1277.203491,1816.912964 1312.407104,1808.656860 
	C1388.524414,1790.805420 1460.824463,1762.999878 1529.274536,1725.167480 
	C1596.615479,1687.948242 1657.715698,1642.326172 1712.738037,1588.627197 
	C1746.109619,1556.058228 1776.368896,1520.731689 1803.854858,1483.026855 
	C1840.623169,1432.588867 1871.489258,1378.815430 1896.438599,1321.588013 
	C1919.879150,1267.821655 1937.507935,1212.235840 1949.473389,1154.855713 
	C1958.759888,1110.322266 1965.052246,1065.294556 1966.068726,1019.834290 
	C1966.997070,978.316711 1967.320557,936.749084 1962.537354,895.277283 
	C1958.391846,859.335571 1952.830444,823.713623 1944.590210,788.499573 
	C1926.847656,712.677307 1899.129395,640.708740 1861.571655,572.482178 
	C1824.788452,505.662659 1779.601318,445.061066 1726.620117,390.317169 
	C1711.143066,374.325256 1694.528564,359.388580 1677.917236,344.548157 
	C1624.051147,296.424255 1564.311768,256.848236 1499.949463,224.276749 
	C1456.596558,202.337372 1411.507202,184.569962 1365.010986,170.391068 
	C1296.459106,149.486359 1226.282959,137.495392 1154.788818,134.624893 
	C1110.322266,132.839554 1065.784058,134.050003 1021.422729,139.491333 
	C988.472961,143.532959 955.747742,148.751495 923.519836,156.462814 
	C815.986389,182.192841 716.839783,226.687912 626.646423,290.844818 
	C574.408569,328.002960 526.785767,370.355774 484.294098,418.350098 
	C453.842712,452.744995 426.284393,489.346741 401.676544,528.209167 
	C366.669006,583.495667 338.498871,642.010864 316.909363,703.743530 
	C289.563293,781.936462 274.339142,862.561035 270.666168,945.172974 
	C269.235657,977.347351 271.445892,1009.686523 272.117889,1041.948120 
	C272.213959,1046.560547 272.990234,1051.158569 273.643494,1057.610596 
z"/>
<path fill="#010100" opacity="1.000000" stroke="none" 
	d="
M273.547607,1056.687012 
	C272.990234,1051.158569 272.213959,1046.560547 272.117889,1041.948120 
	C271.445892,1009.686523 269.235657,977.347351 270.666168,945.172974 
	C274.339142,862.561035 289.563293,781.936462 316.909363,703.743530 
	C338.498871,642.010864 366.669006,583.495667 401.676544,528.209167 
	C426.284393,489.346741 453.842712,452.744995 484.294098,418.350098 
	C526.785767,370.355774 574.408569,328.002960 626.646423,290.844818 
	C716.839783,226.687912 815.986389,182.192841 923.519836,156.462814 
	C955.747742,148.751495 988.472961,143.532959 1021.422729,139.491333 
	C1065.784058,134.050003 1110.322266,132.839554 1154.788818,134.624893 
	C1226.282959,137.495392 1296.459106,149.486359 1365.010986,170.391068 
	C1411.507202,184.569962 1456.596558,202.337372 1499.949463,224.276749 
	C1564.311768,256.848236 1624.051147,296.424255 1677.917236,344.548157 
	C1694.528564,359.388580 1711.143066,374.325256 1726.620117,390.317169 
	C1779.601318,445.061066 1824.788452,505.662659 1861.571655,572.482178 
	C1899.129395,640.708740 1926.847656,712.677307 1944.590210,788.499573 
	C1952.830444,823.713623 1958.391846,859.335571 1962.537354,895.277283 
	C1967.320557,936.749084 1966.997070,978.316711 1966.068726,1019.834290 
	C1965.052246,1065.294556 1958.759888,1110.322266 1949.473389,1154.855713 
	C1937.507935,1212.235840 1919.879150,1267.821655 1896.438599,1321.588013 
	C1871.489258,1378.815430 1840.623169,1432.588867 1803.854858,1483.026855 
	C1776.368896,1520.731689 1746.109619,1556.058228 1712.738037,1588.627197 
	C1657.715698,1642.326172 1596.615479,1687.948242 1529.274536,1725.167480 
	C1460.824463,1762.999878 1388.524414,1790.805420 1312.407104,1808.656860 
	C1277.203491,1816.912964 1241.576782,1822.535522 1205.605469,1826.510620 
	C1158.812378,1831.681396 1111.932129,1831.363647 1065.112183,1829.360718 
	C1030.733398,1827.889893 996.587952,1822.952881 962.660767,1816.593750 
	C920.473450,1808.686401 879.125916,1797.825073 838.645447,1783.709717 
	C758.681396,1755.826538 684.526611,1716.791626 616.279602,1666.632324 
	C587.866333,1645.749512 560.937500,1623.112793 535.255554,1598.890869 
	C467.130402,1534.638062 411.541077,1460.993652 367.861908,1378.234131 
	C330.414551,1307.281982 303.540710,1232.596924 287.574066,1153.938843 
	C281.104950,1122.069580 275.819946,1090.077393 273.547607,1056.687012 
M654.159729,1452.699219 
	C662.344055,1456.865356 670.528442,1461.031494 680.734497,1466.226807 
	C680.734497,1296.312134 680.734497,1128.592529 680.734497,959.427490 
	C685.373962,961.691528 688.352112,963.001221 691.197449,964.554138 
	C771.585022,1008.429016 851.892883,1052.450928 932.443665,1096.023926 
	C940.063904,1100.145996 942.266296,1104.724121 942.201416,1113.067139 
	C941.797424,1165.055054 941.997742,1217.047729 941.997742,1269.038818 
	C941.997742,1272.622925 941.997742,1276.207031 941.997742,1279.768433 
	C1001.184753,1312.700073 1059.613403,1345.209839 1117.947021,1377.666626 
	C1177.121704,1344.231567 1235.641357,1311.166504 1294.166992,1278.098145 
	C1294.166992,1273.726685 1294.166870,1270.076538 1294.166870,1266.426270 
	C1294.166870,1215.768311 1294.299805,1165.109619 1294.004028,1114.453369 
	C1293.965698,1107.894531 1295.972412,1104.431030 1301.656616,1101.114258 
	C1380.190796,1055.288940 1458.556641,1009.175781 1536.982788,963.165588 
	C1539.403564,961.745361 1542.029663,960.675110 1546.360840,958.563965 
	C1546.360840,1128.702148 1546.360840,1297.050537 1546.360840,1466.873047 
	C1551.249756,1464.525146 1554.509644,1463.072021 1557.668823,1461.425781 
	C1613.482056,1432.343018 1669.207886,1403.090454 1725.174438,1374.305786 
	C1732.878906,1370.343262 1736.051880,1366.213135 1736.016479,1357.009521 
	C1735.556152,1237.365112 1735.655518,1117.718628 1735.559326,998.072754 
	C1735.467163,883.426636 1735.314697,768.780518 1735.167480,654.134399 
	C1735.162964,650.657776 1734.922974,647.181396 1734.736938,642.219177 
	C1528.489502,758.798035 1323.859253,874.462769 1119.156372,990.168518 
	C912.300781,875.472046 705.809753,760.977478 499.310486,646.497803 
	C498.745056,646.184326 498.064423,646.063416 497.424438,645.906128 
	C497.121185,645.831604 496.752716,645.795410 496.475891,645.902466 
	C496.184418,646.015198 495.967072,646.319641 494.916626,647.248047 
	C494.916626,649.130371 494.916626,651.726013 494.916626,654.321655 
	C494.916626,890.281128 494.951202,1126.240601 494.749817,1362.199951 
	C494.743774,1369.287964 497.167267,1372.779785 503.281952,1375.867188 
	C553.217529,1401.080200 602.991577,1426.613159 654.159729,1452.699219 
M918.711243,818.293762 
	C985.622070,855.528198 1052.532837,892.762573 1118.989868,929.744507 
	C1164.502319,906.959961 1691.844360,608.657776 1698.219727,601.806946 
	C1576.666504,533.687195 1455.314209,465.680054 1334.342407,397.886108 
	C1220.351196,462.129669 1107.227905,525.531250 994.036194,589.449158 
	C995.535461,591.018433 995.901428,591.635254 996.442932,591.935181 
	C1036.076050,613.888306 1075.764771,635.741577 1115.319092,657.835571 
	C1120.636353,660.805725 1124.798218,660.515747 1130.077637,657.566406 
	C1188.825439,624.747314 1247.759521,592.261780 1306.474487,559.384521 
	C1312.068481,556.252136 1316.317383,555.583862 1322.021118,558.838806 
	C1335.614990,566.596619 1349.588989,573.686584 1363.368042,581.122925 
	C1367.398560,583.298096 1371.290039,585.730835 1376.229858,588.621704 
	C1370.967773,591.681030 1366.765503,594.206116 1362.489014,596.598328 
	C1284.280151,640.347351 1206.009766,683.987183 1127.932983,727.970398 
	C1120.640747,732.078369 1115.105957,731.998657 1107.878052,727.907532 
	C1032.500488,685.241577 956.936401,642.905579 881.440247,600.449219 
	C878.453369,598.769470 875.629761,596.799500 871.651001,594.282043 
	C1006.802368,518.552124 1140.627197,443.565491 1276.090820,367.660675 
	C1270.855957,364.371490 1267.348999,362.051300 1263.733765,359.914001 
	C1217.276733,332.448486 1170.739014,305.118439 1124.416260,277.428558 
	C1118.434814,273.852997 1114.144775,274.102936 1108.104126,277.452637 
	C1016.914673,328.020325 925.565002,378.299377 834.242493,428.627167 
	C739.126892,481.045258 643.997620,533.438232 548.883301,585.858582 
	C541.376404,589.995850 533.940308,594.261414 525.109436,599.234192 
	C656.722595,672.510437 787.057739,745.075195 918.711243,818.293762 
M900.209534,1498.716431 
	C904.006653,1540.972778 905.704651,1583.412109 910.010803,1625.696899 
	C917.807068,1625.696899 924.338074,1625.696899 930.618774,1625.696899 
	C935.428589,1616.566284 936.053040,1606.321045 942.424683,1596.498535 
	C946.256836,1607.384155 949.507324,1616.617676 952.897461,1626.247925 
	C958.463867,1626.247925 963.428833,1626.299072 968.391602,1626.218140 
	C969.981140,1626.192261 971.564880,1625.816772 973.898315,1625.499634 
	C977.806091,1575.228516 981.858337,1525.352539 984.600708,1474.719238 
	C976.900940,1474.719238 970.476929,1474.719238 963.127014,1474.719238 
	C962.444519,1484.871094 961.810913,1494.425049 961.157654,1503.977661 
	C960.476868,1513.933960 960.288025,1523.958984 958.935974,1533.824097 
	C957.689026,1542.923340 959.231812,1552.422485 955.894165,1563.540649 
	C949.293640,1550.787231 948.451111,1538.235107 941.337585,1525.967163 
	C938.563660,1533.919678 936.739014,1539.589722 934.605957,1545.141235 
	C932.509827,1550.596558 932.140564,1556.912598 926.760010,1562.569702 
	C924.571960,1532.277954 922.498718,1503.575073 920.435730,1475.014160 
	C912.390503,1475.014160 905.711975,1475.014160 898.940674,1475.014160 
	C899.382874,1482.938843 899.770813,1489.891357 900.209534,1498.716431 
M1248.393066,1479.708374 
	C1248.393066,1528.247192 1248.393066,1576.785889 1248.393066,1626.246826 
	C1264.353882,1626.246826 1278.958130,1626.425415 1293.556396,1626.206177 
	C1317.046265,1625.853516 1334.313599,1610.028320 1335.132446,1586.612427 
	C1335.982056,1562.314453 1335.926392,1537.944946 1335.153687,1513.642090 
	C1334.457764,1491.749512 1318.077026,1475.471558 1296.309326,1474.293213 
	C1282.351929,1473.537842 1268.323608,1474.088379 1254.327148,1474.056519 
	C1251.545532,1474.050171 1248.869263,1474.218750 1248.393066,1479.708374 
M1050.094604,1625.875732 
	C1055.086914,1625.946533 1060.096802,1626.320068 1065.068481,1626.033203 
	C1082.466553,1625.029297 1102.619019,1608.914185 1102.117432,1587.232422 
	C1101.547363,1562.589600 1101.888672,1537.922852 1102.037476,1513.267700 
	C1102.094727,1503.776001 1099.177490,1495.408325 1092.780029,1488.648804 
	C1080.565674,1475.742920 1065.390259,1471.489868 1048.117188,1475.227417 
	C1031.567139,1478.808350 1014.726624,1492.717651 1015.640869,1516.001587 
	C1016.581482,1539.954468 1015.941650,1563.973022 1015.825073,1587.962036 
	C1015.773254,1598.627319 1019.737427,1607.284546 1027.436523,1614.553223 
	C1033.443115,1620.223877 1040.550659,1623.555420 1050.094604,1625.875732 
M1218.171509,1505.402954 
	C1214.377319,1488.473511 1202.758057,1479.568604 1186.861206,1475.416260 
	C1161.356201,1468.754150 1131.378662,1485.520996 1132.262085,1516.969116 
	C1132.897827,1539.599609 1132.431885,1562.262329 1132.367188,1584.910522 
	C1132.338501,1594.916992 1134.845337,1603.983521 1141.492798,1611.678345 
	C1152.939697,1624.929077 1174.470947,1630.248535 1191.950684,1623.802246 
	C1204.848389,1619.045654 1219.251099,1608.204834 1219.349731,1584.937500 
	C1219.432983,1565.287231 1219.457520,1545.635742 1219.335693,1525.985840 
	C1219.296631,1519.681763 1218.707031,1513.381226 1218.171509,1505.402954 
z"/>
<path fill="#FEB500" opacity="1.000000" stroke="none" 
	d="
M653.487305,1452.374023 
	C602.991577,1426.613159 553.217529,1401.080200 503.281952,1375.867188 
	C497.167267,1372.779785 494.743774,1369.287964 494.749817,1362.199951 
	C494.951202,1126.240601 494.916626,890.281128 494.916626,654.321655 
	C494.916626,651.726013 494.916626,649.130371 494.916626,647.248047 
	C495.967072,646.319641 496.184418,646.015198 496.475891,645.902466 
	C496.752716,645.795410 497.121185,645.831604 497.424438,645.906128 
	C498.064423,646.063416 498.745056,646.184326 499.310486,646.497803 
	C705.809753,760.977478 912.300781,875.472046 1119.156372,990.168518 
	C1323.859253,874.462769 1528.489502,758.798035 1734.736938,642.219177 
	C1734.922974,647.181396 1735.162964,650.657776 1735.167480,654.134399 
	C1735.314697,768.780518 1735.467163,883.426636 1735.559326,998.072754 
	C1735.655518,1117.718628 1735.556152,1237.365112 1736.016479,1357.009521 
	C1736.051880,1366.213135 1732.878906,1370.343262 1725.174438,1374.305786 
	C1669.207886,1403.090454 1613.482056,1432.343018 1557.668823,1461.425781 
	C1554.509644,1463.072021 1551.249756,1464.525146 1546.360840,1466.873047 
	C1546.360840,1297.050537 1546.360840,1128.702148 1546.360840,958.563965 
	C1542.029663,960.675110 1539.403564,961.745361 1536.982788,963.165588 
	C1458.556641,1009.175781 1380.190796,1055.288940 1301.656616,1101.114258 
	C1295.972412,1104.431030 1293.965698,1107.894531 1294.004028,1114.453369 
	C1294.299805,1165.109619 1294.166870,1215.768311 1294.166870,1266.426270 
	C1294.166870,1270.076538 1294.166992,1273.726685 1294.166992,1278.098145 
	C1235.641357,1311.166504 1177.121704,1344.231567 1117.947021,1377.666626 
	C1059.613403,1345.209839 1001.184753,1312.700073 941.997742,1279.768433 
	C941.997742,1276.207031 941.997742,1272.622925 941.997742,1269.038818 
	C941.997742,1217.047729 941.797424,1165.055054 942.201416,1113.067139 
	C942.266296,1104.724121 940.063904,1100.145996 932.443665,1096.023926 
	C851.892883,1052.450928 771.585022,1008.429016 691.197449,964.554138 
	C688.352112,963.001221 685.373962,961.691528 680.734497,959.427490 
	C680.734497,1128.592529 680.734497,1296.312134 680.734497,1466.226807 
	C670.528442,1461.031494 662.344055,1456.865356 653.487305,1452.374023 
z"/>
<path fill="#067495" opacity="1.000000" stroke="none" 
	d="
M918.052063,817.966797 
	C787.057739,745.075195 656.722595,672.510437 525.109436,599.234192 
	C533.940308,594.261414 541.376404,589.995850 548.883301,585.858582 
	C643.997620,533.438232 739.126892,481.045258 834.242493,428.627167 
	C925.565002,378.299377 1016.914673,328.020325 1108.104126,277.452637 
	C1114.144775,274.102936 1118.434814,273.852997 1124.416260,277.428558 
	C1170.739014,305.118439 1217.276733,332.448486 1263.733765,359.914001 
	C1267.348999,362.051300 1270.855957,364.371490 1276.090820,367.660675 
	C1140.627197,443.565491 1006.802368,518.552124 871.651001,594.282043 
	C875.629761,596.799500 878.453369,598.769470 881.440247,600.449219 
	C956.936401,642.905579 1032.500488,685.241577 1107.878052,727.907532 
	C1115.105957,731.998657 1120.640747,732.078369 1127.932983,727.970398 
	C1206.009766,683.987183 1284.280151,640.347351 1362.489014,596.598328 
	C1366.765503,594.206116 1370.967773,591.681030 1376.229858,588.621704 
	C1371.290039,585.730835 1367.398560,583.298096 1363.368042,581.122925 
	C1349.588989,573.686584 1335.614990,566.596619 1322.021118,558.838806 
	C1316.317383,555.583862 1312.068481,556.252136 1306.474487,559.384521 
	C1247.759521,592.261780 1188.825439,624.747314 1130.077637,657.566406 
	C1124.798218,660.515747 1120.636353,660.805725 1115.319092,657.835571 
	C1075.764771,635.741577 1036.076050,613.888306 996.442932,591.935181 
	C995.901428,591.635254 995.535461,591.018433 994.036194,589.449158 
	C1107.227905,525.531250 1220.351196,462.129669 1334.342407,397.886108 
	C1455.314209,465.680054 1576.666504,533.687195 1698.219727,601.806946 
	C1691.844360,608.657776 1164.502319,906.959961 1118.989868,929.744507 
	C1052.532837,892.762573 985.622070,855.528198 918.052063,817.966797 
z"/>
<path fill="#067192" opacity="1.000000" stroke="none" 
	d="
M900.184143,1497.780151 
	C899.770813,1489.891357 899.382874,1482.938843 898.940674,1475.014160 
	C905.711975,1475.014160 912.390503,1475.014160 920.435730,1475.014160 
	C922.498718,1503.575073 924.571960,1532.277954 926.760010,1562.569702 
	C932.140564,1556.912598 932.509827,1550.596558 934.605957,1545.141235 
	C936.739014,1539.589722 938.563660,1533.919678 941.337585,1525.967163 
	C948.451111,1538.235107 949.293640,1550.787231 955.894165,1563.540649 
	C959.231812,1552.422485 957.689026,1542.923340 958.935974,1533.824097 
	C960.288025,1523.958984 960.476868,1513.933960 961.157654,1503.977661 
	C961.810913,1494.425049 962.444519,1484.871094 963.127014,1474.719238 
	C970.476929,1474.719238 976.900940,1474.719238 984.600708,1474.719238 
	C981.858337,1525.352539 977.806091,1575.228516 973.898315,1625.499634 
	C971.564880,1625.816772 969.981140,1626.192261 968.391602,1626.218140 
	C963.428833,1626.299072 958.463867,1626.247925 952.897461,1626.247925 
	C949.507324,1616.617676 946.256836,1607.384155 942.424683,1596.498535 
	C936.053040,1606.321045 935.428589,1616.566284 930.618774,1625.696899 
	C924.338074,1625.696899 917.807068,1625.696899 910.010803,1625.696899 
	C905.704651,1583.412109 904.006653,1540.972778 900.184143,1497.780151 
z"/>
<path fill="#067192" opacity="1.000000" stroke="none" 
	d="
M1248.432373,1478.791626 
	C1248.869263,1474.218750 1251.545532,1474.050171 1254.327148,1474.056519 
	C1268.323608,1474.088379 1282.351929,1473.537842 1296.309326,1474.293213 
	C1318.077026,1475.471558 1334.457764,1491.749512 1335.153687,1513.642090 
	C1335.926392,1537.944946 1335.982056,1562.314453 1335.132446,1586.612427 
	C1334.313599,1610.028320 1317.046265,1625.853516 1293.556396,1626.206177 
	C1278.958130,1626.425415 1264.353882,1626.246826 1248.393066,1626.246826 
	C1248.393066,1576.785889 1248.393066,1528.247192 1248.432373,1478.791626 
M1313.595581,1539.015137 
	C1313.586548,1530.703247 1313.854492,1522.379517 1313.497681,1514.082642 
	C1313.060913,1503.928223 1307.940063,1496.217163 1299.435669,1494.483643 
	C1290.106079,1492.581665 1280.515991,1492.826660 1271.231689,1494.422485 
	C1268.875854,1511.526001 1269.797729,1600.473022 1272.565552,1607.754395 
	C1277.907959,1607.754395 1283.533081,1607.860474 1289.153076,1607.734619 
	C1305.529907,1607.367798 1313.402222,1599.418945 1313.564697,1582.901733 
	C1313.701904,1568.939087 1313.594238,1554.974121 1313.595581,1539.015137 
z"/>
<path fill="#067091" opacity="1.000000" stroke="none" 
	d="
M1049.242554,1625.751343 
	C1040.550659,1623.555420 1033.443115,1620.223877 1027.436523,1614.553223 
	C1019.737427,1607.284546 1015.773254,1598.627319 1015.825073,1587.962036 
	C1015.941650,1563.973022 1016.581482,1539.954468 1015.640869,1516.001587 
	C1014.726624,1492.717651 1031.567139,1478.808350 1048.117188,1475.227417 
	C1065.390259,1471.489868 1080.565674,1475.742920 1092.780029,1488.648804 
	C1099.177490,1495.408325 1102.094727,1503.776001 1102.037476,1513.267700 
	C1101.888672,1537.922852 1101.547363,1562.589600 1102.117432,1587.232422 
	C1102.619019,1608.914185 1082.466553,1625.029297 1065.068481,1626.033203 
	C1060.096802,1626.320068 1055.086914,1625.946533 1049.242554,1625.751343 
M1075.132446,1500.033325 
	C1073.872314,1498.955078 1072.740723,1497.655640 1071.330566,1496.835327 
	C1063.543823,1492.305420 1055.404785,1492.118652 1047.563843,1496.248779 
	C1040.051392,1500.205933 1037.567749,1506.962036 1037.675293,1515.412720 
	C1037.975708,1539.005493 1037.835815,1562.604736 1037.737793,1586.200928 
	C1037.716309,1591.370239 1038.519653,1595.972290 1042.240112,1599.954834 
	C1048.966919,1607.155518 1057.590210,1609.445923 1066.701538,1606.052368 
	C1075.378418,1602.820435 1080.017822,1596.131226 1080.060547,1586.036255 
	C1080.161743,1562.107788 1080.285278,1538.175659 1079.916138,1514.252441 
	C1079.848755,1509.890991 1077.488647,1505.564941 1075.132446,1500.033325 
z"/>
<path fill="#067192" opacity="1.000000" stroke="none" 
	d="
M1218.270508,1506.240967 
	C1218.707031,1513.381226 1219.296631,1519.681763 1219.335693,1525.985840 
	C1219.457520,1545.635742 1219.432983,1565.287231 1219.349731,1584.937500 
	C1219.251099,1608.204834 1204.848389,1619.045654 1191.950684,1623.802246 
	C1174.470947,1630.248535 1152.939697,1624.929077 1141.492798,1611.678345 
	C1134.845337,1603.983521 1132.338501,1594.916992 1132.367188,1584.910522 
	C1132.431885,1562.262329 1132.897827,1539.599609 1132.262085,1516.969116 
	C1131.378662,1485.520996 1161.356201,1468.754150 1186.861206,1475.416260 
	C1202.758057,1479.568604 1214.377319,1488.473511 1218.270508,1506.240967 
M1170.072388,1493.932861 
	C1160.065796,1496.475708 1154.518921,1503.143066 1154.375122,1513.214844 
	C1154.023193,1537.853760 1154.016968,1562.504639 1154.364990,1587.143677 
	C1154.532715,1599.017944 1164.308960,1607.865234 1175.780151,1607.695801 
	C1187.771606,1607.518555 1197.241821,1599.220947 1197.441772,1587.260254 
	C1197.853760,1562.623779 1197.912354,1537.967163 1197.377930,1513.334839 
	C1197.109375,1500.950806 1189.192749,1494.112549 1176.745728,1493.569824 
	C1175.088379,1493.497437 1173.420166,1493.675903 1170.072388,1493.932861 
z"/>
<path fill="#000304" opacity="1.000000" stroke="none" 
	d="
M1313.595215,1540.012695 
	C1313.594238,1554.974121 1313.701904,1568.939087 1313.564697,1582.901733 
	C1313.402222,1599.418945 1305.529907,1607.367798 1289.153076,1607.734619 
	C1283.533081,1607.860474 1277.907959,1607.754395 1272.565552,1607.754395 
	C1269.797729,1600.473022 1268.875854,1511.526001 1271.231689,1494.422485 
	C1280.515991,1492.826660 1290.106079,1492.581665 1299.435669,1494.483643 
	C1307.940063,1496.217163 1313.060913,1503.928223 1313.497681,1514.082642 
	C1313.854492,1522.379517 1313.586548,1530.703247 1313.595215,1540.012695 
z"/>
<path fill="#000101" opacity="1.000000" stroke="none" 
	d="
M1075.659668,1500.627930 
	C1077.488647,1505.564941 1079.848755,1509.890991 1079.916138,1514.252441 
	C1080.285278,1538.175659 1080.161743,1562.107788 1080.060547,1586.036255 
	C1080.017822,1596.131226 1075.378418,1602.820435 1066.701538,1606.052368 
	C1057.590210,1609.445923 1048.966919,1607.155518 1042.240112,1599.954834 
	C1038.519653,1595.972290 1037.716309,1591.370239 1037.737793,1586.200928 
	C1037.835815,1562.604736 1037.975708,1539.005493 1037.675293,1515.412720 
	C1037.567749,1506.962036 1040.051392,1500.205933 1047.563843,1496.248779 
	C1055.404785,1492.118652 1063.543823,1492.305420 1071.330566,1496.835327 
	C1072.740723,1497.655640 1073.872314,1498.955078 1075.659668,1500.627930 
z"/>
<path fill="#000304" opacity="1.000000" stroke="none" 
	d="
M1170.914673,1493.835449 
	C1173.420166,1493.675903 1175.088379,1493.497437 1176.745728,1493.569824 
	C1189.192749,1494.112549 1197.109375,1500.950806 1197.377930,1513.334839 
	C1197.912354,1537.967163 1197.853760,1562.623779 1197.441772,1587.260254 
	C1197.241821,1599.220947 1187.771606,1607.518555 1175.780151,1607.695801 
	C1164.308960,1607.865234 1154.532715,1599.017944 1154.364990,1587.143677 
	C1154.016968,1562.504639 1154.023193,1537.853760 1154.375122,1513.214844 
	C1154.518921,1503.143066 1160.065796,1496.475708 1170.914673,1493.835449 
z"/>
</svg>